<svg width="244" height="150" viewBox="0 0 1184.9 727" xmlns="http://www.w3.org/2000/svg" xmlns:xlink="http://www.w3.org/1999/xlink" id="Ebene_1" overflow="hidden"><defs></defs><g id="Layer_1"><path d="M54.5 221.4 116.7 221.4 116.7 462.7 54.5 462.7 54.5 221.4Z"/><path d="M117.3 463.3 53.9 463.3 53.9 220.8 117.3 220.8ZM55.1 462.1 116.1 462.1 116.1 222 55.1 222Z"/><path d="M231.5 221.4 293.8 221.4 293.8 462.7 231.5 462.7 231.5 221.4Z"/><path d="M294.4 463.3 231 463.3 231 220.8 294.4 220.8ZM232.1 462.1 293.1 462.1 293.1 222 232.1 222Z"/><rect x="135.2" y="306.5" width="109.1" height="62.6"/><path d="M1131 462.7 1068.8 462.7 1068.8 377 971 377 971 314.4 1068.8 314.4 1068.8 309.4C1068.8 301.6 1067.7 291.1 1062.4 285.8 1057.1 280.5 1046.7 279.4 1039 279.4L981 279.4C973.2 279.4 962.8 280.5 957.6 285.8 952.4 291.1 951.2 301.6 951.2 309.4L951.2 462.7 889 462.7 889 309.4C889 280.8 897.3 258 913.6 241.5 929.9 225 952.6 216.7 981 216.7L1039 216.7C1067.4 216.7 1090.1 225 1106.4 241.5 1122.7 258 1131 280.8 1131 309.4Z"/><path d="M786.9 361.9 786.9 462.7 854.8 462.7 854.8 289.8 786.9 361.9Z"/><path d="M855.4 463.3 786.3 463.3 786.3 361.7 786.5 361.5 855.4 288.3 855.4 463.3ZM787.5 462.1 854.2 462.1 854.2 291.4 787.5 362.2Z"/><path d="M854.8 260.2 854.8 221.4 809.6 221.4 730.9 295.8 652.2 221.4 606.9 221.4 606.9 462.7 674.8 462.7 674.8 332.1 730.9 389.8 786.9 332.1 854.8 260.2Z"/><path d="M675.4 463.3 606.3 463.3 606.3 220.8 652.4 220.8 652.6 221 730.9 295 809.4 220.8 855.5 220.8 855.5 260.5 855.3 260.7 787.4 332.6 730.9 390.8 675.5 333.7 675.5 463.3ZM607.5 462.1 674.2 462.1 674.2 330.6 730.8 388.9 786.4 331.6 854.1 259.9 854.1 221.9 809.7 221.9 730.8 296.5 730.4 296.1 651.9 222 607.5 222Z"/><path d="M325.6 256.6 450.6 160 575.6 256.6 575.6 338.3 450.6 241.6 325.6 338.3 325.6 256.6Z" fill="#009EE0"/><path d="M576 339.1 450.6 242.1 325.2 339.1 325.2 256.4 450.6 159.4 576 256.4ZM326 256.8 326 337.4 450.6 241 575.2 337.4 575.2 256.8 450.6 160.4Z" fill="#009EE0"/><path d="M575.6 430.8 450.6 527.4 325.6 430.8 325.6 349.1 450.6 445.8 575.6 349.1 575.6 430.8Z" fill="#009EE0"/><path d="M450.6 528 450.4 527.8 325.2 431 325.2 348.3 450.6 445.3 576 348.3 576 431 575.8 431.1ZM326 430.6 450.6 527 575.2 430.6 575.2 350 450.6 446.4 450.4 446.2 326 349.9Z" fill="#009EE0"/></g><g id="en"><path d="M70.5 533.6C69.476 532.882 68.3207 532.372 67.1 532.1 65.0564 531.718 62.9784 531.55 60.9 531.6L53.8 531.6 53.8 570.4 57.3 570.4 57.3 553 61.4 553C65.9 553 69.1 552.1 71.2 550.4 73.3 548.7 74.3 546 74.3 542.3 74.3462 540.547 74.0047 538.806 73.3 537.2 72.717 535.764 71.7478 534.518 70.5 533.6ZM68.4 548.3C66.9 549.4 64.1 549.9 59.8 549.9L57.4 549.9 57.4 534.7 59.8 534.7C61.8124 534.642 63.8249 534.81 65.8 535.2 66.8634 535.464 67.8327 536.018 68.6 536.8 69.2872 537.544 69.7996 538.433 70.1 539.4 70.4276 540.435 70.5962 541.514 70.6 542.6 70.6 545.3 69.9 547.2 68.4 548.3Z" stroke="#1A161A" stroke-width="0.75" stroke-miterlimit="10"/><path d="M171.3 557C171.3 560.8 170.4 563.7 168.7 565.5 167 567.3 164.3 568.3 160.8 568.3 157.3 568.3 154.5 567.4 152.8 565.5 151.1 563.6 150.2 560.8 150.2 557L150.2 531.7 146.7 531.7 146.7 555.9C146.7 561.1 147.9 565.1 150.2 567.6 152.5 570.1 156.1 571.5 160.8 571.5 165.5 571.5 169.1 570.2 171.4 567.6 173.7 565 174.9 561.1 174.9 555.9L174.9 531.7 171.4 531.7 171.4 557Z" stroke="#1A161A" stroke-width="0.75" stroke-miterlimit="10"/><path d="M267.7 563.9 252.7 529.1 247.2 570.7 251.4 570.7 254.3 541.8 267.7 572.6 281.4 541.8 284.2 570.5 284.2 570.7 288.3 570.7 283.2 529.1 267.7 563.9Z" stroke="#1A161A" stroke-width="0.75" stroke-miterlimit="10"/><path d="M377.9 533.5C376.84 532.78 375.652 532.271 374.4 532 372.356 531.618 370.278 531.45 368.2 531.5L361 531.5 361 570.6 364.9 570.6 364.9 553.2 368.8 553.2C373.3 553.2 376.6 552.3 378.7 550.6 380.8 548.9 381.9 546.1 381.9 542.3 381.936 540.516 381.595 538.744 380.9 537.1 380.178 535.693 379.153 534.464 377.9 533.5ZM377.7 542.6C377.7 545.2 377 547.1 375.6 548.2 374.2 549.3 371.3 549.8 367.1 549.8L364.9 549.8 364.9 534.9 367.1 534.9C369.112 534.842 371.125 535.01 373.1 535.4 374.151 535.624 375.099 536.186 375.8 537 376.485 537.708 376.998 538.563 377.3 539.5 377.538 540.517 377.672 541.556 377.7 542.6Z" stroke="#1A161A" stroke-width="0.75" stroke-miterlimit="10"/><path d="M492.8 535.2 503.5 535.2 503.5 570.6 507.3 570.6 507.3 535.2 518 535.2 518 531.5 492.8 531.5 492.8 535.2Z" stroke="#1A161A" stroke-width="0.75" stroke-miterlimit="10"/><path d="M554.5 570.6 574.1 570.6 574.1 567 558.4 567 558.4 550.6 574.1 550.6 574.1 547 558.4 547 558.4 535.2 574.1 535.2 574.1 531.5 554.5 531.5 554.5 570.6Z" stroke="#1A161A" stroke-width="0.75" stroke-miterlimit="10"/><path d="M639 531.7C636.769 530.997 634.439 530.66 632.1 530.7 629.33 530.694 626.584 531.203 624 532.2 621.528 533.118 619.279 534.55 617.4 536.4 615.509 538.227 614.041 540.445 613.1 542.9 612.085 545.514 611.576 548.296 611.6 551.1 611.567 553.904 612.076 556.689 613.1 559.3 615.038 564.34 619.043 568.308 624.1 570.2 626.684 571.197 629.43 571.706 632.2 571.7 634.364 571.689 636.517 571.386 638.6 570.8 640.751 570.192 642.804 569.283 644.7 568.1L644.8 568 644.8 563.4 644.5 563.6C642.708 565.041 640.677 566.158 638.5 566.9 636.419 567.661 634.216 568.033 632 568 629.809 568.016 627.636 567.609 625.6 566.8 623.615 566.004 621.812 564.813 620.3 563.3 618.806 561.735 617.619 559.903 616.8 557.9 616.007 555.723 615.633 553.416 615.7 551.1 615.53 546.532 617.227 542.091 620.4 538.8 623.622 535.647 627.994 533.949 632.5 534.1 634.658 534.092 636.796 534.499 638.8 535.3 640.934 536.201 642.922 537.414 644.7 538.9L645 539.1 645.1 534.7 645 534.6C643.124 533.395 641.11 532.421 639 531.7Z" stroke="#1A161A" stroke-width="0.75" stroke-miterlimit="10"/><path d="M707.7 547.2 687 547.2 687 531.5 683.1 531.5 683.1 570.6 687 570.6 687 550.6 707.7 550.6 707.7 570.6 711.6 570.6 711.6 531.5 707.7 531.5 707.7 547.2Z" stroke="#1A161A" stroke-width="0.75" stroke-miterlimit="10"/><path d="M779.3 562 751.9 529.6 751.9 570.6 755.5 570.6 755.5 539.6 783 572.1 783 531.5 779.3 531.5 779.3 562Z" stroke="#1A161A" stroke-width="0.75" stroke-miterlimit="10"/><path d="M857.2 536.5C855.27 534.617 852.995 533.123 850.5 532.1 845.285 530.1 839.515 530.1 834.3 532.1 831.793 533.099 829.514 534.596 827.6 536.5 825.658 538.423 824.097 540.697 823 543.2 821.962 545.705 821.418 548.388 821.4 551.1 821.37 553.784 821.916 556.444 823 558.9 824.061 561.423 825.626 563.703 827.6 565.6 829.563 567.515 831.87 569.042 834.4 570.1 839.546 572.1 845.254 572.1 850.4 570.1 852.949 569.079 855.263 567.547 857.2 565.6 859.142 563.736 860.674 561.488 861.7 559 862.738 556.495 863.282 553.812 863.3 551.1 863.33 548.383 862.785 545.691 861.7 543.2 860.652 540.694 859.123 538.418 857.2 536.5ZM859.2 551.2C859.2 555.707 857.4 560.027 854.2 563.2 852.606 564.757 850.743 566.01 848.7 566.9 844.54 568.598 839.886 568.634 835.7 567 833.668 566.145 831.831 564.886 830.3 563.3 828.743 561.706 827.49 559.843 826.6 557.8 825.757 555.736 825.316 553.53 825.3 551.3 825.267 549.066 825.71 546.85 826.6 544.8 827.453 542.737 828.711 540.867 830.3 539.3 831.876 537.722 833.744 536.465 835.8 535.6 837.832 534.767 840.004 534.326 842.2 534.3 844.434 534.267 846.65 534.71 848.7 535.6 850.745 536.43 852.587 537.692 854.1 539.3 855.681 540.912 856.937 542.814 857.8 544.9 858.789 546.849 859.27 549.016 859.2 551.2Z" stroke="#1A161A" stroke-width="0.75" stroke-miterlimit="10"/><path d="M905.6 531.5 901.7 531.5 901.7 570.6 918.9 570.6 918.9 567 905.6 567 905.6 531.5Z" stroke="#1A161A" stroke-width="0.75" stroke-miterlimit="10"/><path d="M987.1 536.5C985.17 534.617 982.895 533.123 980.4 532.1 975.185 530.1 969.415 530.1 964.2 532.1 961.693 533.099 959.414 534.596 957.5 536.5 955.558 538.423 953.997 540.697 952.9 543.2 951.862 545.705 951.318 548.388 951.3 551.1 951.27 553.784 951.816 556.444 952.9 558.9 953.961 561.423 955.526 563.703 957.5 565.6 959.463 567.515 961.77 569.042 964.3 570.1 969.446 572.1 975.154 572.1 980.3 570.1 982.849 569.079 985.163 567.547 987.1 565.6 989.042 563.736 990.574 561.488 991.6 559 992.638 556.495 993.182 553.812 993.2 551.1 993.23 548.383 992.685 545.691 991.6 543.2 990.552 540.694 989.023 538.418 987.1 536.5ZM989.1 551.2C989.1 555.707 987.3 560.027 984.1 563.2 982.506 564.757 980.643 566.01 978.6 566.9 974.44 568.598 969.786 568.634 965.6 567 963.568 566.145 961.731 564.886 960.2 563.3 958.643 561.706 957.39 559.843 956.5 557.8 955.657 555.736 955.216 553.53 955.2 551.3 955.167 549.066 955.61 546.85 956.5 544.8 957.353 542.737 958.611 540.867 960.2 539.3 961.776 537.722 963.644 536.465 965.7 535.6 967.732 534.767 969.904 534.326 972.1 534.3 974.334 534.267 976.55 534.71 978.6 535.6 980.645 536.43 982.487 537.692 984 539.3 985.581 540.912 986.837 542.814 987.7 544.9 988.689 546.849 989.17 549.016 989.1 551.2Z" stroke="#1A161A" stroke-width="0.75" stroke-miterlimit="10"/><path d="M1051.3 554.5 1064.7 554.5C1064.74 558.163 1063.26 561.678 1060.6 564.2 1057.73 566.783 1053.96 568.146 1050.1 568 1047.94 568.027 1045.8 567.619 1043.8 566.8 1041.85 565.99 1040.08 564.8 1038.6 563.3 1035.52 560.113 1033.83 555.833 1033.9 551.4 1033.9 546.3 1035.4 542.1 1038.4 538.9 1041.4 535.708 1045.62 533.959 1050 534.1 1052.69 534.052 1055.34 534.707 1057.7 536 1060.06 537.29 1062.03 539.189 1063.4 541.5L1063.5 541.7 1066.3 539.3 1066.2 539.2C1064.74 536.44 1062.43 534.228 1059.6 532.9 1056.41 531.392 1052.92 530.639 1049.4 530.7 1046.69 530.656 1044 531.167 1041.5 532.2 1036.67 534.283 1032.91 538.261 1031.1 543.2 1030.17 545.766 1029.7 548.472 1029.7 551.2 1029.7 557.3 1031.6 562.3 1035.2 566 1038.8 569.7 1043.7 571.7 1049.6 571.7 1055.5 571.7 1060.3 569.9 1063.7 566.4 1067.1 562.9 1068.8 558 1068.8 551.8L1068.8 551.2 1051.2 551.2 1051.2 554.5Z" stroke="#1A161A" stroke-width="0.75" stroke-miterlimit="10"/><path d="M1126.6 531.5 1116.2 549.1 1106 531.6 1105.9 531.5 1101.3 531.5 1114.3 552.7 1114.3 570.6 1118.1 570.6 1118.1 552.7 1130.9 531.8 1131 531.5 1126.6 531.5Z" stroke="#1A161A" stroke-width="0.75" stroke-miterlimit="10"/></g></svg>